# xmcd
#
# Track frame offsets:
#	150
#	12277
#	23774
#	35635
#	49041
#	60287
#	72031
#	83980
#	96128
#	108727
#	122257
#	134127
#	146039
#	158931
#	170031
#	180598
#	193611
#	205762
#	219186
#	231616
#	246934
#	259699
#	271652
#	284727
#	297405
#	310699
#
# Disc length: 4315
#
# Revision: 3
# Processed by: cddbd v1.5.1PL0 Copyright (c) Steve Scherf et al.
# Submitted via: CDex 1.50
# Normalized: r2:TDELIM( - )
#
DISCID=8410d91a
DTITLE=Various Artist - Legends Of Country
DYEAR=1900
DGENRE=Country
TTITLE0=Marty Robbins - I`ll Go On Alone
TTITLE1=Tex Ritter - Have I Told You Lately
TTITLE2=Ernest Tubb - Tennessee Border No 2
TTITLE3=Rosalie Allen - A Cowboy`s Sweetheart
TTITLE4=Hank Snow - A Fool Such As I
TTITLE5=Hank Williams - You Win Again
TTITLE6=Texas Jim Robertson - Filipino Baby
TTITLE7=Roy Acuff - Blue Eyes Crying In The Rain
TTITLE8=Jimmy Wakely - One Has My Name
TTITLE9=Merle Travis - Divorce Me C.O.D
TTITLE10=Eddy Arnold - I`m Throwing Rice
TTITLE11=Bill Monroe - Footprints In The Snow
TTITLE12=Johnny Lee Wills - Rag Mop
TTITLE13=Jack Guthrie - Oakie Boogie
TTITLE14=Hank Thompson - Whoa Sailor
TTITLE15=Wesley Tutle - With Tears In My Eyes
TTITLE16=Hank Snow - Bluebird Island (with Anita Carter)
TTITLE17=Merle Travis - So Round, So Firm, So Fully Packed
TTITLE18=Jimmy Wakely - Beautiful Brown Eyes
TTITLE19=Arthur Smith - Guitar Boogie
TTITLE20=Ernest Tubb - Have You Ever Been Lonely
TTITLE21=Red Ingle - Cigaretets - Whisky and Wild Wild Women
TTITLE22=Tex Williams - Life Get`s Tee-Jus Don`t It
TTITLE23=Chet Atkins - Boogie Man Boogie
TTITLE24=Delmore Brothers - Pan American Boogie
TTITLE25=Carter Family - You Tied A Love Knot
EXTD=
EXTT0=
EXTT1=
EXTT2=
EXTT3=
EXTT4=
EXTT5=
EXTT6=
EXTT7=
EXTT8=
EXTT9=
EXTT10=
EXTT11=
EXTT12=
EXTT13=
EXTT14=
EXTT15=
EXTT16=
EXTT17=
EXTT18=
EXTT19=
EXTT20=
EXTT21=
EXTT22=
EXTT23=
EXTT24=
EXTT25=
PLAYORDER=
